<?xml version="1.0" standalone="no"?>
<!DOCTYPE svg PUBLIC "-//W3C//DTD SVG 20010904//EN"
 "http://www.w3.org/TR/2001/REC-SVG-20010904/DTD/svg10.dtd">
<svg version="1.0" xmlns="http://www.w3.org/2000/svg"
 width="372.000000pt" height="372.000000pt" viewBox="0 0 372.000000 372.000000"
 preserveAspectRatio="xMidYMid meet">
<metadata>
Created by potrace 1.11, written by Peter Selinger 2001-2013
</metadata>
<g transform="translate(0.000000,372.000000) scale(0.100000,-0.100000)"
fill="#000000" stroke="none">
<path d="M1728 3715 c-1 -1 -36 -6 -76 -9 -40 -4 -78 -9 -85 -11 -7 -2 -30 -7
-52 -10 -90 -13 -250 -60 -362 -106 -570 -236 -990 -745 -1113 -1348 -51 -251
-48 -543 9 -792 12 -54 58 -205 71 -234 5 -11 25 -58 46 -105 107 -247 307
-507 524 -683 623 -502 1491 -552 2167 -124 396 251 688 654 802 1105 41 162
53 254 55 440 2 138 -9 281 -27 362 -2 8 -7 33 -11 55 -29 151 -116 377 -206
533 -263 460 -761 813 -1260 897 -19 3 -62 10 -95 16 -54 10 -378 22 -387 14z"/>
</g>
</svg>
